<svg xmlns="http://www.w3.org/2000/svg" viewBox="0 0 512 512">
  <defs>
    <linearGradient id="bg" x1="0" y1="0" x2="1" y2="1">
      <stop offset="0%" stop-color="#1a3a5c"/>
      <stop offset="100%" stop-color="#0f2440"/>
    </linearGradient>
  </defs>
  <!-- Background -->
  <rect width="512" height="512" rx="112" fill="url(#bg)"/>
  <!-- Decorative circle -->
  <circle cx="420" cy="80" r="120" fill="rgba(255,255,255,0.04)"/>
  <!-- Document back (shadow) -->
  <rect x="156" y="76" width="220" height="300" rx="20" fill="white" opacity="0.12"/>
  <!-- Document front -->
  <rect x="136" y="96" width="220" height="300" rx="20" fill="white" opacity="0.95"/>
  <!-- Document lines -->
  <rect x="172" y="152" width="148" height="8" rx="4" fill="#1a3a5c" opacity="0.18"/>
  <rect x="172" y="176" width="120" height="8" rx="4" fill="#1a3a5c" opacity="0.13"/>
  <rect x="172" y="208" width="148" height="8" rx="4" fill="#1a3a5c" opacity="0.18"/>
  <rect x="172" y="232" width="100" height="8" rx="4" fill="#1a3a5c" opacity="0.13"/>
  <rect x="172" y="264" width="148" height="8" rx="4" fill="#1a3a5c" opacity="0.18"/>
  <rect x="172" y="288" width="80" height="8" rx="4" fill="#1a3a5c" opacity="0.13"/>
  <!-- Scalpel overlay -->
  <g transform="translate(310, 260) rotate(-45)">
    <rect x="-6" y="-80" width="12" height="56" rx="3" fill="#f59e0b" opacity="0.9"/>
    <path d="M -6 -24 L 0 52 L 6 -24 Z" fill="white" opacity="0.85"/>
  </g>
  <!-- Code brackets badge -->
  <circle cx="360" cy="380" r="52" fill="#1a3a5c"/>
  <circle cx="360" cy="380" r="48" fill="#0ea5e9"/>
  <text x="360" y="396" font-family="monospace" font-size="40" font-weight="700" fill="white" text-anchor="middle">&lt;/&gt;</text>
</svg>
